<svg width="307" height="75" viewBox="0 0 307 75" fill="none" xmlns="http://www.w3.org/2000/svg">
<path fill-rule="evenodd" clip-rule="evenodd" d="M25.0134 7.05031H52.3877C52.7839 5.3038 54.3458 4 56.2123 4C58.3782 4 60.1341 5.75584 60.1341 7.92179C60.1341 8.82973 59.8255 9.66562 59.3076 10.3303L72.8773 33.6637C73.0568 33.6423 73.2394 33.6313 73.4246 33.6313C75.9515 33.6313 78 35.6798 78 38.2067C78 40.5872 76.182 42.5431 73.8587 42.7618L59.1745 67.6534C59.5051 68.141 59.6983 68.7295 59.6983 69.3631C59.6983 71.0477 58.3327 72.4133 56.648 72.4133C55.4516 72.4133 54.4161 71.7245 53.9164 70.7219L25.1923 71.2604C24.4286 72.7226 22.8979 73.7206 21.1341 73.7206C18.6072 73.7206 16.5587 71.6722 16.5587 69.1452C16.5587 67.9287 17.0335 66.823 17.8079 66.0034L3.23241 41.9053C3.17215 41.9088 3.11143 41.9106 3.05028 41.9106C1.36566 41.9106 0 40.545 0 38.8604C0 37.1757 1.36566 35.8101 3.05028 35.8101C3.16686 35.8101 3.28191 35.8166 3.39509 35.8294L17.2162 11.5436C16.5345 10.7446 16.1229 9.70808 16.1229 8.57542C16.1229 6.04848 18.1714 4 20.6983 4C22.6905 4 24.3853 5.27321 25.0134 7.05031ZM20.0714 64.6939L5.52505 40.6439C5.88717 40.1423 6.10056 39.5263 6.10056 38.8604C6.10056 38.2529 5.92296 37.6868 5.61685 37.2114L19.3699 13.0453L19.4335 12.9738C19.5624 13.0108 19.6936 13.0422 19.8268 13.0679V36.0104C18.6802 36.4489 17.8659 37.5596 17.8659 38.8604C17.8659 40.1806 18.7046 41.3049 19.8783 41.7295L20.3656 64.6341C20.2664 64.6508 20.1683 64.6708 20.0714 64.6939ZM56.9226 66.325C56.8321 66.3169 56.7406 66.3128 56.648 66.3128C55.4109 66.3128 54.3457 67.0493 53.8672 68.1078L26.7579 68.6161L70.8251 42.7585L56.9226 66.325ZM26.6281 9.66483H52.6982C53.3399 10.9561 54.6724 11.8436 56.2123 11.8436C56.519 11.8436 56.8175 11.8084 57.1039 11.7418L70.4654 34.7169C70.3531 34.8123 70.2454 34.9129 70.1429 35.0185L26.6281 9.66483ZM23.646 65.3204C23.4378 65.1834 23.2177 65.0629 22.9877 64.9608L22.488 41.475C22.8598 41.251 23.1799 40.95 23.4262 40.594L42.0583 40.518L23.646 65.3204ZM41.8766 37.9042L23.8368 37.9778C23.611 37.2293 23.1052 36.6022 22.4413 36.2182V12.8884L41.8996 37.7849C41.8912 37.8244 41.8835 37.8641 41.8766 37.9042ZM24.7499 11.5965L68.9314 37.3386C68.9027 37.4879 68.8813 37.6399 68.8675 37.794L47.8844 37.8797C47.6275 36.455 46.3813 35.3743 44.8827 35.3743C44.4114 35.3743 43.965 35.4812 43.5666 35.672L24.7499 11.5965ZM44.6129 41.4631L26.666 65.6386L69.4756 40.519C69.4651 40.5011 69.4547 40.4832 69.4445 40.4652C69.4334 40.4457 69.4224 40.426 69.4116 40.4063L47.1205 40.4973C46.5634 41.0985 45.767 41.4748 44.8827 41.4748C44.7918 41.4748 44.7018 41.4709 44.6129 41.4631ZM20.6983 11.4078C22.2626 11.4078 23.5307 10.1397 23.5307 8.57543C23.5307 7.01114 22.2626 5.74303 20.6983 5.74303C19.1341 5.74303 17.8659 7.01114 17.8659 8.57543C17.8659 10.1397 19.1341 11.4078 20.6983 11.4078ZM73.4246 41.0391C74.9889 41.0391 76.257 39.771 76.257 38.2067C76.257 36.6424 74.9889 35.3743 73.4246 35.3743C71.8603 35.3743 70.5922 36.6424 70.5922 38.2067C70.5922 39.771 71.8603 41.0391 73.4246 41.0391ZM23.9665 69.1452C23.9665 70.7095 22.6984 71.9776 21.1341 71.9776C19.5698 71.9776 18.3017 70.7095 18.3017 69.1452C18.3017 67.5809 19.5698 66.3128 21.1341 66.3128C22.6984 66.3128 23.9665 67.5809 23.9665 69.1452Z" fill="url(#paint0_linear_125_9228)"/>
<path d="M97.9 33.6V37.3H104.38V39.9H97.9V45H94.66V31H105.24V33.6H97.9ZM119.78 34.24V45H116.82V43.72C116.407 44.1867 115.913 44.5467 115.34 44.8C114.767 45.04 114.147 45.16 113.48 45.16C112.067 45.16 110.947 44.7533 110.12 43.94C109.293 43.1267 108.88 41.92 108.88 40.32V34.24H112V39.86C112 41.5933 112.727 42.46 114.18 42.46C114.927 42.46 115.527 42.22 115.98 41.74C116.433 41.2467 116.66 40.52 116.66 39.56V34.24H119.78ZM131.61 44.48C131.304 44.7067 130.924 44.88 130.47 45C130.03 45.1067 129.564 45.16 129.07 45.16C127.79 45.16 126.797 44.8333 126.09 44.18C125.397 43.5267 125.05 42.5667 125.05 41.3V36.88H123.39V34.48H125.05V31.86H128.17V34.48H130.85V36.88H128.17V41.26C128.17 41.7133 128.284 42.0667 128.51 42.32C128.75 42.56 129.084 42.68 129.51 42.68C130.004 42.68 130.424 42.5467 130.77 42.28L131.61 44.48ZM146.202 34.24V45H143.242V43.72C142.829 44.1867 142.335 44.5467 141.762 44.8C141.189 45.04 140.569 45.16 139.902 45.16C138.489 45.16 137.369 44.7533 136.542 43.94C135.715 43.1267 135.302 41.92 135.302 40.32V34.24H138.422V39.86C138.422 41.5933 139.149 42.46 140.602 42.46C141.349 42.46 141.949 42.22 142.402 41.74C142.855 41.2467 143.082 40.52 143.082 39.56V34.24H146.202ZM154.072 35.66C154.446 35.14 154.946 34.7467 155.572 34.48C156.212 34.2133 156.946 34.08 157.772 34.08V36.96C157.426 36.9333 157.192 36.92 157.072 36.92C156.179 36.92 155.479 37.1733 154.972 37.68C154.466 38.1733 154.212 38.92 154.212 39.92V45H151.092V34.24H154.072V35.66ZM172.07 39.66C172.07 39.7 172.05 39.98 172.01 40.5H163.87C164.017 41.1667 164.363 41.6933 164.91 42.08C165.457 42.4667 166.137 42.66 166.95 42.66C167.51 42.66 168.003 42.58 168.43 42.42C168.87 42.2467 169.277 41.98 169.65 41.62L171.31 43.42C170.297 44.58 168.817 45.16 166.87 45.16C165.657 45.16 164.583 44.9267 163.65 44.46C162.717 43.98 161.997 43.32 161.49 42.48C160.983 41.64 160.73 40.6867 160.73 39.62C160.73 38.5667 160.977 37.62 161.47 36.78C161.977 35.9267 162.663 35.2667 163.53 34.8C164.41 34.32 165.39 34.08 166.47 34.08C167.523 34.08 168.477 34.3067 169.33 34.76C170.183 35.2133 170.85 35.8667 171.33 36.72C171.823 37.56 172.07 38.54 172.07 39.66ZM166.49 36.44C165.783 36.44 165.19 36.64 164.71 37.04C164.23 37.44 163.937 37.9867 163.83 38.68H169.13C169.023 38 168.73 37.46 168.25 37.06C167.77 36.6467 167.183 36.44 166.49 36.44ZM197.136 31L192.556 45H189.076L185.996 35.52L182.816 45H179.356L174.756 31H178.116L181.276 40.84L184.576 31H187.576L190.776 40.92L194.036 31H197.136ZM205.044 45.16C203.911 45.16 202.891 44.9267 201.984 44.46C201.091 43.98 200.391 43.32 199.884 42.48C199.378 41.64 199.124 40.6867 199.124 39.62C199.124 38.5533 199.378 37.6 199.884 36.76C200.391 35.92 201.091 35.2667 201.984 34.8C202.891 34.32 203.911 34.08 205.044 34.08C206.178 34.08 207.191 34.32 208.084 34.8C208.978 35.2667 209.678 35.92 210.184 36.76C210.691 37.6 210.944 38.5533 210.944 39.62C210.944 40.6867 210.691 41.64 210.184 42.48C209.678 43.32 208.978 43.98 208.084 44.46C207.191 44.9267 206.178 45.16 205.044 45.16ZM205.044 42.6C205.844 42.6 206.498 42.3333 207.004 41.8C207.524 41.2533 207.784 40.5267 207.784 39.62C207.784 38.7133 207.524 37.9933 207.004 37.46C206.498 36.9133 205.844 36.64 205.044 36.64C204.244 36.64 203.584 36.9133 203.064 37.46C202.544 37.9933 202.284 38.7133 202.284 39.62C202.284 40.5267 202.544 41.2533 203.064 41.8C203.584 42.3333 204.244 42.6 205.044 42.6ZM218.01 35.66C218.383 35.14 218.883 34.7467 219.51 34.48C220.15 34.2133 220.883 34.08 221.71 34.08V36.96C221.363 36.9333 221.13 36.92 221.01 36.92C220.117 36.92 219.417 37.1733 218.91 37.68C218.403 38.1733 218.15 38.92 218.15 39.92V45H215.03V34.24H218.01V35.66ZM230.185 40.78L228.685 42.26V45H225.565V30.16H228.685V38.56L233.245 34.24H236.965L232.485 38.8L237.365 45H233.585L230.185 40.78ZM244.037 45.16C243.143 45.16 242.27 45.0533 241.417 44.84C240.563 44.6133 239.883 44.3333 239.377 44L240.417 41.76C240.897 42.0667 241.477 42.32 242.157 42.52C242.837 42.7067 243.503 42.8 244.157 42.8C245.477 42.8 246.137 42.4733 246.137 41.82C246.137 41.5133 245.957 41.2933 245.597 41.16C245.237 41.0267 244.683 40.9133 243.937 40.82C243.057 40.6867 242.33 40.5333 241.757 40.36C241.183 40.1867 240.683 39.88 240.257 39.44C239.843 39 239.637 38.3733 239.637 37.56C239.637 36.88 239.83 36.28 240.217 35.76C240.617 35.2267 241.19 34.8133 241.937 34.52C242.697 34.2267 243.59 34.08 244.617 34.08C245.377 34.08 246.13 34.1667 246.877 34.34C247.637 34.5 248.263 34.7267 248.757 35.02L247.717 37.24C246.77 36.7067 245.737 36.44 244.617 36.44C243.95 36.44 243.45 36.5333 243.117 36.72C242.783 36.9067 242.617 37.1467 242.617 37.44C242.617 37.7733 242.797 38.0067 243.157 38.14C243.517 38.2733 244.09 38.4 244.877 38.52C245.757 38.6667 246.477 38.8267 247.037 39C247.597 39.16 248.083 39.46 248.497 39.9C248.91 40.34 249.117 40.9533 249.117 41.74C249.117 42.4067 248.917 43 248.517 43.52C248.117 44.04 247.53 44.4467 246.757 44.74C245.997 45.02 245.09 45.16 244.037 45.16ZM259.962 45.24C258.535 45.24 257.242 44.9333 256.082 44.32C254.935 43.6933 254.028 42.8333 253.362 41.74C252.708 40.6333 252.382 39.3867 252.382 38C252.382 36.6133 252.708 35.3733 253.362 34.28C254.028 33.1733 254.935 32.3133 256.082 31.7C257.242 31.0733 258.542 30.76 259.982 30.76C261.195 30.76 262.288 30.9733 263.262 31.4C264.248 31.8267 265.075 32.44 265.742 33.24L263.662 35.16C262.715 34.0667 261.542 33.52 260.142 33.52C259.275 33.52 258.502 33.7133 257.822 34.1C257.142 34.4733 256.608 35 256.222 35.68C255.848 36.36 255.662 37.1333 255.662 38C255.662 38.8667 255.848 39.64 256.222 40.32C256.608 41 257.142 41.5333 257.822 41.92C258.502 42.2933 259.275 42.48 260.142 42.48C261.542 42.48 262.715 41.9267 263.662 40.82L265.742 42.74C265.075 43.5533 264.248 44.1733 263.262 44.6C262.275 45.0267 261.175 45.24 259.962 45.24ZM274.458 45.16C273.325 45.16 272.305 44.9267 271.398 44.46C270.505 43.98 269.805 43.32 269.298 42.48C268.792 41.64 268.538 40.6867 268.538 39.62C268.538 38.5533 268.792 37.6 269.298 36.76C269.805 35.92 270.505 35.2667 271.398 34.8C272.305 34.32 273.325 34.08 274.458 34.08C275.592 34.08 276.605 34.32 277.498 34.8C278.392 35.2667 279.092 35.92 279.598 36.76C280.105 37.6 280.358 38.5533 280.358 39.62C280.358 40.6867 280.105 41.64 279.598 42.48C279.092 43.32 278.392 43.98 277.498 44.46C276.605 44.9267 275.592 45.16 274.458 45.16ZM274.458 42.6C275.258 42.6 275.912 42.3333 276.418 41.8C276.938 41.2533 277.198 40.5267 277.198 39.62C277.198 38.7133 276.938 37.9933 276.418 37.46C275.912 36.9133 275.258 36.64 274.458 36.64C273.658 36.64 272.998 36.9133 272.478 37.46C271.958 37.9933 271.698 38.7133 271.698 39.62C271.698 40.5267 271.958 41.2533 272.478 41.8C272.998 42.3333 273.658 42.6 274.458 42.6ZM284.444 34.24H287.564V45H284.444V34.24ZM286.004 32.74C285.431 32.74 284.964 32.5733 284.604 32.24C284.244 31.9067 284.064 31.4933 284.064 31C284.064 30.5067 284.244 30.0933 284.604 29.76C284.964 29.4267 285.431 29.26 286.004 29.26C286.577 29.26 287.044 29.42 287.404 29.74C287.764 30.06 287.944 30.46 287.944 30.94C287.944 31.46 287.764 31.8933 287.404 32.24C287.044 32.5733 286.577 32.74 286.004 32.74ZM299 34.08C300.333 34.08 301.406 34.48 302.22 35.28C303.046 36.08 303.46 37.2667 303.46 38.84V45H300.34V39.32C300.34 38.4667 300.153 37.8333 299.78 37.42C299.406 36.9933 298.866 36.78 298.16 36.78C297.373 36.78 296.746 37.0267 296.28 37.52C295.813 38 295.58 38.72 295.58 39.68V45H292.46V34.24H295.44V35.5C295.853 35.0467 296.366 34.7 296.98 34.46C297.593 34.2067 298.266 34.08 299 34.08Z" fill="white"/>
<defs>
<linearGradient id="paint0_linear_125_9228" x1="78" y1="27.095" x2="1.82405e-06" y2="38.8603" gradientUnits="userSpaceOnUse">
<stop stop-color="#8E2ED5"/>
<stop offset="0.469202" stop-color="#398DE8"/>
<stop offset="1" stop-color="#01CBF4"/>
</linearGradient>
</defs>
</svg>
